<?xml version="1.0" encoding="UTF-8" standalone="no"?>
<svg xmlns:dc="http://purl.org/dc/elements/1.1/" xmlns:cc="http://creativecommons.org/ns#" xmlns:rdf="http://www.w3.org/1999/02/22-rdf-syntax-ns#" xmlns:svg="http://www.w3.org/2000/svg" xmlns="http://www.w3.org/2000/svg" xmlns:sodipodi="http://sodipodi.sourceforge.net/DTD/sodipodi-0.dtd" xmlns:inkscape="http://www.inkscape.org/namespaces/inkscape" width="64" height="64" viewBox="0 0 64.000001 64.000001" id="svg4260" version="1.1" inkscape:version="0.91 r13725" sodipodi:docname="19,fingerprint,biometric,forensic,science,threat,hacker,proof,thumbprint.svg">
  <defs id="defs4262"/>
  <sodipodi:namedview id="base" pagecolor="#ffffff" bordercolor="#666666" borderopacity="1.0" inkscape:pageopacity="0.0" inkscape:pageshadow="2" inkscape:zoom="3.959798" inkscape:cx="58.534896" inkscape:cy="22.549043" inkscape:document-units="px" inkscape:current-layer="layer1" showgrid="true" units="px" inkscape:window-width="1366" inkscape:window-height="705" inkscape:window-x="-8" inkscape:window-y="-8" inkscape:window-maximized="1" inkscape:snap-bbox="true" inkscape:bbox-nodes="true" inkscape:bbox-paths="true" inkscape:snap-bbox-edge-midpoints="true" inkscape:snap-bbox-midpoints="true">
    <inkscape:grid type="xygrid" id="grid4338"/>
  </sodipodi:namedview>
  
  <g inkscape:label="Layer 1" inkscape:groupmode="layer" id="layer1" transform="translate(0,-988.36216)">
    <g transform="translate(-263.77154,-222.58261)" id="g6717">
      <path sodipodi:nodetypes="ccccccccccccccccccccccccccccccccccccccccccccccccccccccsccscccccccccccccccccccccccccccccc" id="path6325" d="m 296.1172,1222.9401 c -4.2688,-0.074 -8.4919,1.2223 -12.0195,3.7579 -0.5417,0.3893 0.042,1.2018 0.584,0.8125 4.4687,-3.2121 10.1094,-4.3301 15.4648,-3.0625 0.6637,0.1787 0.9038,-0.8346 0.2305,-0.9727 -1.4092,-0.3335 -2.8368,-0.5106 -4.2598,-0.5352 z m 6.9961,1.4317 c -0.5568,0 -0.7033,0.7671 -0.1836,0.9668 7.8605,3.1977 12.6467,11.214 11.7305,19.6504 -0.087,0.6751 0.935,0.7855 0.9941,0.1074 0.9639,-8.8758 -4.0777,-17.3193 -12.3476,-20.6836 -0.061,-0.026 -0.1268,-0.04 -0.1934,-0.041 z m -11.6367,2.0195 c -0.046,5e-4 -0.091,0.01 -0.1348,0.02 -7.4782,2.0037 -12.6817,8.7852 -12.6816,16.5273 0,2.1127 0.1727,3.0469 -0.043,4.9512 -0.1252,0.9142 -0.5246,1.7691 -1.1465,2.4511 -0.4493,0.4935 0.2909,1.1674 0.7402,0.6739 0.7596,-0.8329 1.2466,-1.8773 1.3985,-2.9942 l 0,-0.012 c 0.2278,-2.0045 0.049,-3.0114 0.049,-5.0703 -10e-5,-7.2943 4.8957,-13.6746 11.9414,-15.5625 0.5698,-0.1462 0.4632,-0.9852 -0.125,-0.9844 z m 4.1875,2.3239 c -0.3812,0 -0.7614,0.019 -1.1387,0.053 l 0,0 c -4.5269,0.3998 -8.7059,2.9614 -11.0703,7.0567 -0.3713,0.5865 0.5424,1.1146 0.8652,0.5 2.933,-5.0801 8.8569,-7.6188 14.5586,-6.2403 5.7017,1.3784 9.8094,6.3424 10.0977,12.2012 0.034,0.6667 1.0341,0.6157 1,-0.051 -0.3099,-6.2974 -4.7348,-11.6433 -10.8633,-13.125 -1.1491,-0.2778 -2.3058,-0.4054 -3.4492,-0.3965 z m -0.377,5.7911 c -1.0944,0.063 -2.183,0.3399 -3.2012,0.8339 -0.6002,0.2904 -0.1646,1.1907 0.4356,0.9004 2.395,-1.162 5.2268,-0.9574 7.4297,0.5371 0.5551,0.3897 1.1285,-0.4576 0.5605,-0.8281 -1.2487,-0.8471 -2.6757,-1.3283 -4.1308,-1.4336 -0.3638,-0.026 -0.729,-0.031 -1.0938,-0.01 z m 7.0977,3.5312 c -0.4025,0 -0.64,0.4514 -0.4121,0.7832 0.9353,1.409 1.3631,3.093 1.2129,4.7774 -0.06,0.664 0.936,0.754 0.9961,0.09 0.1704,-1.9105 -0.3142,-3.8219 -1.375,-5.4199 -0.092,-0.1438 -0.2511,-0.2307 -0.4219,-0.2305 z m 9.834,2.2424 0,0.01 c -0.2951,0.013 -0.5146,0.278 -0.4727,0.5704 0.08,0.6116 0.1255,1.227 0.1348,1.8437 l 0,3.1309 c 0,3.0417 -0.414,6.0685 -1.2325,8.998 -0.1963,0.6512 0.7926,0.9279 0.9629,0.2695 0.8429,-3.0171 1.2696,-6.1348 1.2696,-9.2675 l 0,-3.1387 0,-0.012 c -0.01,-0.6549 -0.058,-1.3094 -0.1426,-1.959 -0.031,-0.2607 -0.2573,-0.4534 -0.5195,-0.4414 z m -27.3282,7.2187 c -0.2567,0.012 -0.4627,0.2161 -0.4765,0.4727 -0.1921,2.843 -1.5481,5.4805 -3.75,7.2891 -0.5608,0.418 0.1165,1.2412 0.6347,0.7714 2.4147,-1.9833 3.9027,-4.8745 4.1133,-7.9921 0.025,-0.3008 -0.22,-0.5551 -0.5215,-0.5411 z m 5.4864,0.01 c -0.2368,0.014 -0.4309,0.1929 -0.4648,0.4277 -0.6455,4.0973 -2.2947,7.9722 -4.8008,11.2774 -0.4316,0.5351 0.3988,1.164 0.7969,0.6035 2.6057,-3.4367 4.3211,-7.4643 4.9921,-11.7246 0.056,-0.3178 -0.1992,-0.6047 -0.5214,-0.586 z m 15.541,5.7657 c -0.2373,0 -0.4388,0.1749 -0.4824,0.4082 -0.4705,2.3542 -1.1855,4.6535 -2.1328,6.8594 -0.304,0.6277 0.6716,1.0471 0.9179,0.3945 0.9749,-2.2697 1.7112,-4.6363 2.1953,-7.0586 0.067,-0.3145 -0.1766,-0.6091 -0.498,-0.6035 z m -6.6524,1.4355 c -0.2188,0.01 -0.4079,0.1545 -0.4668,0.3653 -0.7212,2.4706 -1.6916,4.8613 -2.8945,7.1367 -0.3126,0.5899 0.5724,1.0587 0.8848,0.4687 1.2344,-2.335 2.2286,-4.7887 2.9687,-7.3242 0.1004,-0.3271 -0.1501,-0.6562 -0.4922,-0.6465 z" style="color:#000000;font-style:normal;font-variant:normal;font-weight:normal;font-stretch:normal;font-size:medium;line-height:normal;font-family:sans-serif;text-indent:0;text-align:start;text-decoration:none;text-decoration-line:none;text-decoration-style:solid;text-decoration-color:#000000;letter-spacing:normal;word-spacing:normal;text-transform:none;direction:ltr;block-progression:tb;writing-mode:lr-tb;baseline-shift:baseline;text-anchor:start;white-space:normal;clip-rule:nonzero;display:inline;overflow:visible;visibility:visible;opacity:1;isolation:auto;mix-blend-mode:normal;color-interpolation:sRGB;color-interpolation-filters:linearRGB;solid-color:#000000;solid-opacity:1;fill:#000000;fill-opacity:1;fill-rule:nonzero;stroke:none;stroke-width:1;stroke-linecap:round;stroke-linejoin:round;stroke-miterlimit:4;stroke-dasharray:none;stroke-dashoffset:0;stroke-opacity:1;color-rendering:auto;image-rendering:auto;shape-rendering:auto;text-rendering:auto;enable-background:accumulate" inkscape:connector-curvature="0"/>
      <path sodipodi:nodetypes="ccccccccccscccccccccssccsscccccccccsccssccsscccccccccccccccccccccccccccccccccccccccccccccc" inkscape:connector-curvature="0" style="color:#000000;font-style:normal;font-variant:normal;font-weight:normal;font-stretch:normal;font-size:medium;line-height:normal;font-family:sans-serif;text-indent:0;text-align:start;text-decoration:none;text-decoration-line:none;text-decoration-style:solid;text-decoration-color:#000000;letter-spacing:normal;word-spacing:normal;text-transform:none;direction:ltr;block-progression:tb;writing-mode:lr-tb;baseline-shift:baseline;text-anchor:start;white-space:normal;clip-rule:nonzero;display:inline;overflow:visible;visibility:visible;opacity:1;isolation:auto;mix-blend-mode:normal;color-interpolation:sRGB;color-interpolation-filters:linearRGB;solid-color:#000000;solid-opacity:1;fill:#cc4441;fill-opacity:1;fill-rule:nonzero;stroke:none;stroke-width:1;stroke-linecap:round;stroke-linejoin:round;stroke-miterlimit:4;stroke-dasharray:none;stroke-dashoffset:0;stroke-opacity:1;color-rendering:auto;image-rendering:auto;shape-rendering:auto;text-rendering:auto;enable-background:accumulate" d="m 295.5821,1225.8269 c -0.3848,0 -0.7692,0.022 -1.1543,0.053 -0.696,0.024 -0.6133,1.0807 0.078,0.9961 2.9013,-0.2285 5.8102,0.3348 8.4179,1.6269 0.6012,0.3064 1.0518,-0.6045 0.4434,-0.8964 -2.4233,-1.2008 -5.0919,-1.8089 -7.7851,-1.7793 z m 3.4746,6.2829 c -0.017,-9e-4 -0.034,-9e-4 -0.051,0 -0.5557,0.04 -0.6399,0.8213 -0.1055,0.9785 4.2917,1.3639 7.2031,5.3446 7.2031,9.8477 l 0,0.01 c 0.056,2.674 0.046,5.4568 -0.2227,7.8671 -0.074,0.6627 0.9199,0.7741 0.9942,0.1114 0.277,-2.4883 0.283,-5.3027 0.2265,-7.9903 -8e-4,-4.9339 -3.1981,-9.3043 -7.9004,-10.7988 -0.047,-0.016 -0.097,-0.025 -0.1464,-0.027 z m -8.9121,4.705 c -0.1301,0 -0.2534,0.059 -0.3438,0.1524 -1.5835,1.5835 -2.4746,3.7313 -2.4746,5.9707 l 0,3.3144 c 0,4.2351 -1.7514,8.1536 -4.6738,11.0196 -0.5299,0.4648 0.2242,1.2337 0.6992,0.7129 3.1054,-3.0454 4.9746,-7.2214 4.9746,-11.7325 l 0,-3.3144 c 0,-1.9746 0.7854,-3.8674 2.1816,-5.2637 0.3289,-0.3178 0.094,-0.8738 -0.3632,-0.8594 z m 5.6269,0.5723 c -0.063,-2e-4 -0.1265,0.012 -0.1856,0.035 -1.391,0.049 -2.7219,0.5928 -3.7089,1.584 -1.033,1.0371 -1.6133,2.4424 -1.6133,3.9082 l -0.016,2.1796 c -0.014,0.6733 1,0.6834 1,0.01 l 0.016,-2.1816 c 0,-1.202 0.4762,-2.3537 1.3222,-3.2032 0.8456,-0.8491 1.9907,-1.3255 3.1856,-1.3261 l 0,0 c 2.521,0 4.5528,2.0335 4.5528,4.5547 l 0,1.4453 c 0,2.6349 -0.2727,5.2612 -0.8145,7.8398 -0.138,0.6524 0.8406,0.8594 0.9786,0.207 0.5559,-2.6462 0.8359,-5.3428 0.8359,-8.0468 l 0,-1.4453 c 0,-2.9966 -2.3974,-5.4137 -5.3691,-5.5176 -0.058,-0.024 -0.1207,-0.036 -0.1837,-0.037 l 0,0 0,-0.01 z m -13.2793,1.4922 c -0.2191,0.011 -0.4053,0.1642 -0.459,0.377 -0.3845,1.4355 -0.5407,2.9239 -0.4648,4.4082 0.051,1.5791 -0.038,2.1463 -0.02,4.3515 l 0,0.01 c 0.047,1.8821 -0.956,3.6387 -2.625,4.584 -0.5807,0.3281 -0.088,1.1992 0.4922,0.8711 1.9829,-1.1231 3.1894,-3.2272 3.1328,-5.4805 -0.017,-2.1722 0.071,-2.7482 0.018,-4.377 l 0,-0.01 c -0.071,-1.3799 0.076,-2.761 0.4336,-4.0957 0.096,-0.331 -0.1636,-0.6577 -0.5078,-0.6387 z m 13.2793,1.3906 c -1.4668,0 -2.666,1.2012 -2.666,2.668 l -0.029,2.7363 c -0.12,2.699 -0.6148,5.3674 -1.4707,7.9297 -0.2569,0.6537 0.7598,0.9933 0.9473,0.3164 0.8852,-2.6504 1.3973,-5.4096 1.5214,-8.2012 10e-5,-0.01 10e-5,-0.013 0,-0.019 l 0.029,-2.7598 c 0,-0.9264 0.7396,-1.668 1.666,-1.6679 0.9264,0 1.666,0.7415 1.666,1.6679 -0.01,0.6762 1.0096,0.6762 1,0 0,-1.4668 -1.1992,-2.668 -2.666,-2.6679 l 0,0 z m 1.9981,5.0451 c -0.2561,0.01 -0.4636,0.2111 -0.4805,0.4668 -0.444,5.7017 -2.2635,11.221 -5.3086,16.1036 -0.3686,0.5703 0.5021,1.1107 0.8496,0.5273 3.1295,-5.0179 4.9986,-10.69 5.4551,-16.5527 0.027,-0.2998 -0.2147,-0.5556 -0.5156,-0.545 z m -6.875,10.8538 c -0.1823,0.016 -0.3412,0.1309 -0.4141,0.2988 -0.6813,1.4938 -1.4872,2.9273 -2.4102,4.2852 -0.4078,0.5567 0.4577,1.146 0.8262,0.5625 0.9546,-1.4045 1.7895,-2.8884 2.4941,-4.4336 0.1547,-0.3288 -0.082,-0.7077 -0.4453,-0.7129 -0.017,-9e-4 -0.034,-9e-4 -0.051,0 z" id="path9761"/>
      <path id="path9763" d="m 281.9727,1228.6452 c -0.1298,0 -0.2531,0.058 -0.3438,0.1504 -4.6204,4.6204 -6.6922,11.2092 -5.5488,17.6426 0.1085,0.6686 1.114,0.4891 0.9844,-0.1758 -1.0864,-6.1127 0.8814,-12.3697 5.2714,-16.7598 0.3252,-0.318 0.091,-0.8698 -0.3632,-0.8574 z m 23.7285,0.4919 c -0.4738,0.019 -0.6572,0.6257 -0.2734,0.9043 2.6769,2.0046 4.6644,4.792 5.6855,7.9766 0.1798,0.678 1.1988,0.3516 0.9512,-0.3047 -1.0845,-3.3822 -3.1941,-6.3439 -6.0371,-8.4727 -0.093,-0.072 -0.2087,-0.1084 -0.3262,-0.1035 z m -9.9297,2.4668 c -3.4021,10e-5 -6.6252,1.5293 -8.7773,4.1641 -2.1522,2.6348 -3.0072,6.0981 -2.3282,9.4316 0.1328,0.6537 1.1133,0.4545 0.9805,-0.1992 -0.6193,-3.0401 0.1604,-6.1968 2.1231,-8.5996 1.9626,-2.4029 4.8994,-3.7968 8.0019,-3.7969 0.6762,0.01 0.6762,-1.0096 0,-1 z m 13.6992,13.0236 c -0.2762,0.01 -0.4932,0.2395 -0.4844,0.5157 0.079,4.5249 -0.625,9.0298 -2.082,13.3144 -0.215,0.6316 0.7325,0.9539 0.9473,0.3223 1.4942,-4.3939 2.216,-9.014 2.1347,-13.6543 -0.001,-0.2816 -0.2341,-0.5069 -0.5156,-0.4981 z m -5.7598,1.4375 c -0.2761,-10e-4 -0.5008,0.222 -0.5019,0.4981 -0.1,5.2342 -1.2664,10.3939 -3.4277,15.1621 -0.3167,0.622 0.6516,1.0604 0.9101,0.4121 2.2175,-4.892 3.4153,-10.1845 3.5176,-15.5547 0.01,-0.2822 -0.2157,-0.5167 -0.4981,-0.5176 z" style="color:#000000;font-style:normal;font-variant:normal;font-weight:normal;font-stretch:normal;font-size:medium;line-height:normal;font-family:sans-serif;text-indent:0;text-align:start;text-decoration:none;text-decoration-line:none;text-decoration-style:solid;text-decoration-color:#000000;letter-spacing:normal;word-spacing:normal;text-transform:none;direction:ltr;block-progression:tb;writing-mode:lr-tb;baseline-shift:baseline;text-anchor:start;white-space:normal;clip-rule:nonzero;display:inline;overflow:visible;visibility:visible;opacity:1;isolation:auto;mix-blend-mode:normal;color-interpolation:sRGB;color-interpolation-filters:linearRGB;solid-color:#000000;solid-opacity:1;fill:#fbd1d1;fill-opacity:1;fill-rule:nonzero;stroke:none;stroke-width:1;stroke-linecap:round;stroke-linejoin:round;stroke-miterlimit:4;stroke-dasharray:none;stroke-dashoffset:0;stroke-opacity:1;color-rendering:auto;image-rendering:auto;shape-rendering:auto;text-rendering:auto;enable-background:accumulate" inkscape:connector-curvature="0" sodipodi:nodetypes="ccccccccccccccccccccccccccccccc"/>
    </g>
  </g>

	<metadata>
		<rdf:RDF xmlns:rdf="http://www.w3.org/1999/02/22-rdf-syntax-ns#" xmlns:rdfs="http://www.w3.org/2000/01/rdf-schema#" xmlns:dc="http://purl.org/dc/elements/1.1/">
			<rdf:Description about="https://iconscout.com/legal#licenses" dc:title="19,fingerprint,biometric,forensic,science,threat,hacker,proof,thumbprint" dc:description="19,fingerprint,biometric,forensic,science,threat,hacker,proof,thumbprint" dc:publisher="Iconscout" dc:date="2016-12-16" dc:format="image/svg+xml" dc:language="en">
				<dc:creator>
					<rdf:Bag>
						<rdf:li>Jemis Mali</rdf:li>
					</rdf:Bag>
				</dc:creator>
			</rdf:Description>
		</rdf:RDF>
    </metadata></svg>
