<?xml version="1.0" encoding="UTF-8" standalone="no"?>
<svg xmlns:dc="http://purl.org/dc/elements/1.1/" xmlns:cc="http://creativecommons.org/ns#" xmlns:rdf="http://www.w3.org/1999/02/22-rdf-syntax-ns#" xmlns:svg="http://www.w3.org/2000/svg" xmlns="http://www.w3.org/2000/svg" xmlns:sodipodi="http://sodipodi.sourceforge.net/DTD/sodipodi-0.dtd" xmlns:inkscape="http://www.inkscape.org/namespaces/inkscape" width="64" height="64" viewBox="0 0 64 64.000001" id="svg4540" version="1.1" inkscape:version="0.91 r13725" sodipodi:docname="15 hacker attack cyber crime security bug threats hacking.svg">
  <defs id="defs4542"/>
  <sodipodi:namedview id="base" pagecolor="#ffffff" bordercolor="#666666" borderopacity="1.0" inkscape:pageopacity="0.0" inkscape:pageshadow="2" inkscape:zoom="5.6" inkscape:cx="2.7629074" inkscape:cy="30.809245" inkscape:document-units="px" inkscape:current-layer="layer1" showgrid="true" units="px" inkscape:window-width="1366" inkscape:window-height="705" inkscape:window-x="-8" inkscape:window-y="-8" inkscape:window-maximized="1" inkscape:snap-bbox="true" inkscape:bbox-paths="true" inkscape:bbox-nodes="true" inkscape:snap-bbox-edge-midpoints="true" inkscape:snap-bbox-midpoints="true">
    <inkscape:grid type="xygrid" id="grid4548"/>
  </sodipodi:namedview>
  
  <g inkscape:label="Layer 1" inkscape:groupmode="layer" id="layer1" transform="translate(0,-988.36214)">
    <path style="color:#000000;font-style:normal;font-variant:normal;font-weight:normal;font-stretch:normal;font-size:medium;line-height:normal;font-family:sans-serif;text-indent:0;text-align:start;text-decoration:none;text-decoration-line:none;text-decoration-style:solid;text-decoration-color:#000000;letter-spacing:normal;word-spacing:normal;text-transform:none;direction:ltr;block-progression:tb;writing-mode:lr-tb;baseline-shift:baseline;text-anchor:start;white-space:normal;clip-rule:nonzero;display:inline;overflow:visible;visibility:visible;opacity:1;isolation:auto;mix-blend-mode:normal;color-interpolation:sRGB;color-interpolation-filters:linearRGB;solid-color:#000000;solid-opacity:1;fill:#000000;fill-opacity:1;fill-rule:nonzero;stroke:none;stroke-width:0.99999994;stroke-linecap:butt;stroke-linejoin:miter;stroke-miterlimit:4;stroke-dasharray:none;stroke-dashoffset:0;stroke-opacity:1;color-rendering:auto;image-rendering:auto;shape-rendering:auto;text-rendering:auto;enable-background:accumulate" d="M 9 12 L 9 12.5 L 9 17 L 12 17 L 12 12 L 9 12 z M 14 12 L 14 17 L 15 17 L 15 12 L 14 12 z M 17 12 L 17 12.5 L 17 17 L 20 17 L 20 12 L 17 12 z M 22 12 L 22 17 L 23 17 L 23 12 L 22 12 z M 25 12 L 25 12.5 L 25 17 L 28 17 L 28 12 L 25 12 z M 30 12 L 30 17 L 31 17 L 31 12 L 30 12 z M 33 12 L 33 12.5 L 33 17 L 36 17 L 36 12 L 33 12 z M 38 12 L 38 17 L 39 17 L 39 12 L 38 12 z M 41 12 L 41 12.5 L 41 17 L 44 17 L 44 12 L 41 12 z M 46 12 L 46 17 L 47 17 L 47 12 L 46 12 z M 49 12 L 49 12.5 L 49 17 L 52 17 L 52 12 L 49 12 z M 54 12 L 54 17 L 55 17 L 55 12 L 54 12 z M 10 13 L 11 13 L 11 16 L 10 16 L 10 13 z M 18 13 L 19 13 L 19 16 L 18 16 L 18 13 z M 26 13 L 27 13 L 27 16 L 26 16 L 26 13 z M 34 13 L 35 13 L 35 16 L 34 16 L 34 13 z M 42 13 L 43 13 L 43 16 L 42 16 L 42 13 z M 50 13 L 51 13 L 51 16 L 50 16 L 50 13 z M 9 19 L 9 24 L 10 24 L 10 19 L 9 19 z M 12 19 L 12 19.5 L 12 24 L 15 24 L 15 19 L 12 19 z M 17 19 L 17 24 L 18 24 L 18 19 L 17 19 z M 20 19 L 20 19.5 L 20 24 L 23 24 L 23 19 L 20 19 z M 25 19 L 25 21.496094 C 25.3271 21.322494 25.661 21.172022 26 21.044922 L 26 19 L 25 19 z M 28 19 L 28 20.556641 C 28.3332 20.517641 28.667 20.507812 29 20.507812 L 29 20 L 30 20 L 30 20.574219 C 30.3379 20.614219 30.6698 20.676359 31 20.755859 L 31 19 L 28 19 z M 33 19 L 33 21.503906 C 33.3464 21.686506 33.6799 21.890694 34 22.121094 L 34 19 L 33 19 z M 36 19 L 36 19.5 L 36 24 L 39 24 L 39 19 L 36 19 z M 41 19 L 41 24 L 42 24 L 42 19 L 41 19 z M 44 19 L 44 19.5 L 44 24 L 47 24 L 47 19 L 44 19 z M 49 19 L 49 24 L 50 24 L 50 19 L 49 19 z M 52 19 L 52 19.5 L 52 24 L 55 24 L 55 19 L 52 19 z M 13 20 L 14 20 L 14 23 L 13 23 L 13 20 z M 21 20 L 22 20 L 22 23 L 21 23 L 21 20 z M 37 20 L 38 20 L 38 23 L 37 23 L 37 20 z M 45 20 L 46 20 L 46 23 L 45 23 L 45 20 z M 53 20 L 54 20 L 54 23 L 53 23 L 53 20 z M 29.164062 21.494141 C 28.802254 21.486029 28.438662 21.504378 28.076172 21.548828 C 27.10953 21.667328 26.15142 21.973828 25.255859 22.486328 C 21.673725 24.535828 20.439756 29.097391 22.509766 32.650391 C 24.459331 35.996614 28.644027 37.270005 32.117188 35.695312 L 33.310547 37.734375 L 31.59375 38.714844 A 0.50004997 0.50004997 0 1 0 32.089844 39.582031 L 32.378906 39.416016 L 37.962891 49 C 38.560071 50.0251 39.888692 50.375156 40.919922 49.785156 C 41.951298 49.195256 42.31007 47.86885 41.712891 46.84375 L 36.132812 37.269531 L 36.419922 37.105469 A 0.50004997 0.50004997 0 0 0 36.195312 36.167969 L 36.195312 36.169922 A 0.50004997 0.50004997 0 0 0 35.923828 36.238281 L 34.177734 37.236328 L 32.996094 35.21875 C 36.386655 33.104119 37.521765 28.678843 35.5 25.208984 C 34.141399 22.877284 31.696723 21.55092 29.164062 21.494141 z M 29.144531 22.488281 C 31.340572 22.536488 33.45748 23.689103 34.636719 25.712891 C 36.433669 28.796991 35.373312 32.721606 32.257812 34.503906 C 29.142453 36.286306 25.169847 35.230484 23.373047 32.146484 C 21.576322 29.062584 22.636747 25.137869 25.751953 23.355469 C 26.530779 22.909869 27.362627 22.640709 28.201172 22.537109 C 28.515626 22.498297 28.830811 22.481395 29.144531 22.488281 z M 9 26 L 9 26.5 L 9 31 L 12 31 L 12 26 L 9 26 z M 14 26 L 14 31 L 15 31 L 15 26 L 14 26 z M 17 26 L 17 26.5 L 17 31 L 20 31 L 20 26 L 17 26 z M 25 26 L 25 26.5 L 25 32 L 28.427734 32 L 28.427734 26 L 25 26 z M 31.5 26 L 31.5 32 L 32.5 32 L 32.5 26 L 31.5 26 z M 38 26 L 38 31 L 39 31 L 39 26 L 38 26 z M 41 26 L 41 26.5 L 41 31 L 44 31 L 44 26 L 41 26 z M 46 26 L 46 31 L 47 31 L 47 26 L 46 26 z M 49 26 L 49 26.5 L 49 31 L 52 31 L 52 26 L 49 26 z M 54 26 L 54 31 L 55 31 L 55 26 L 54 26 z M 10 27 L 11 27 L 11 30 L 10 30 L 10 27 z M 18 27 L 19 27 L 19 30 L 18 30 L 18 27 z M 26 27 L 27.427734 27 L 27.427734 31 L 26 31 L 26 27 z M 42 27 L 43 27 L 43 30 L 42 30 L 42 27 z M 50 27 L 51 27 L 51 30 L 50 30 L 50 27 z M 9 33 L 9 38 L 10 38 L 10 33 L 9 33 z M 12 33 L 12 33.5 L 12 38 L 15 38 L 15 33 L 12 33 z M 17 33 L 17 38 L 18 38 L 18 33 L 17 33 z M 20 33 L 20 33.5 L 20 38 L 23 38 L 23 34.888672 C 22.4864 34.379872 22.024531 33.806397 21.644531 33.154297 C 21.615531 33.103297 21.592453 33.0509 21.564453 33 L 20 33 z M 36 33 L 36 33.5 L 36 35.177734 A 1.50015 1.50015 0 0 1 36.244141 35.164062 A 1.50015 1.50015 0 0 1 37 35.400391 L 37 34 L 38 34 L 38 37 L 37.648438 37 A 1.50015 1.50015 0 0 1 37.431641 37.503906 L 37.720703 38 L 39 38 L 39 33 L 36 33 z M 41 33 L 41 38 L 42 38 L 42 33 L 41 33 z M 44 33 L 44 33.5 L 44 38 L 47 38 L 47 33 L 44 33 z M 49 33 L 49 38 L 50 38 L 50 33 L 49 33 z M 52 33 L 52 33.5 L 52 38 L 55 38 L 55 33 L 52 33 z M 13 34 L 14 34 L 14 37 L 13 37 L 13 34 z M 21 34 L 22 34 L 22 37 L 21 37 L 21 34 z M 45 34 L 46 34 L 46 37 L 45 37 L 45 34 z M 53 34 L 54 34 L 54 37 L 53 37 L 53 34 z M 25 36.355469 L 25 38 L 26 38 L 26 36.816406 C 25.6562 36.687906 25.3256 36.527369 25 36.355469 z M 31 37.126953 C 30.0068 37.363853 28.9915 37.411669 28 37.292969 L 28 38 L 31 38 L 31 37.126953 z M 35.265625 37.765625 L 40.849609 47.347656 C 41.17543 47.906956 40.991452 48.593269 40.423828 48.917969 C 39.856258 49.242669 39.153944 49.055394 38.828125 48.496094 L 33.248047 38.919922 L 35.265625 37.765625 z M 9 40 L 9 40.5 L 9 45 L 12 45 L 12 40 L 9 40 z M 14 40 L 14 45 L 15 45 L 15 40 L 14 40 z M 17 40 L 17 40.5 L 17 45 L 20 45 L 20 40 L 17 40 z M 22 40 L 22 45 L 23 45 L 23 40 L 22 40 z M 25 40 L 25 40.5 L 25 45 L 28 45 L 28 40 L 25 40 z M 30 40 L 30 45 L 31 45 L 31 40 L 30 40 z M 41 40 L 41 40.5 L 41 43.628906 L 41.798828 45 L 44 45 L 44 40 L 41 40 z M 46 40 L 46 45 L 47 45 L 47 40 L 46 40 z M 49 40 L 49 40.5 L 49 45 L 52 45 L 52 40 L 49 40 z M 54 40 L 54 45 L 55 45 L 55 40 L 54 40 z M 10 41 L 11 41 L 11 44 L 10 44 L 10 41 z M 18 41 L 19 41 L 19 44 L 18 44 L 18 41 z M 26 41 L 27 41 L 27 44 L 26 44 L 26 41 z M 42 41 L 43 41 L 43 44 L 42 44 L 42 41 z M 50 41 L 51 41 L 51 44 L 50 44 L 50 41 z M 33 42.462891 L 33 45 L 34.478516 45 L 33 42.462891 z M 9 47 L 9 52 L 10 52 L 10 47 L 9 47 z M 12 47 L 12 47.5 L 12 52 L 15 52 L 15 47 L 12 47 z M 17 47 L 17 52 L 18 52 L 18 47 L 17 47 z M 20 47 L 20 47.5 L 20 52 L 23 52 L 23 47 L 20 47 z M 25 47 L 25 52 L 26 52 L 26 47 L 25 47 z M 28 47 L 28 47.5 L 28 52 L 31 52 L 31 47 L 28 47 z M 33 47 L 33 52 L 34 52 L 34 47 L 33 47 z M 44 47 L 44 47.5 L 44 52 L 47 52 L 47 47 L 44 47 z M 49 47 L 49 52 L 50 52 L 50 47 L 49 47 z M 52 47 L 52 47.5 L 52 52 L 55 52 L 55 47 L 52 47 z M 36 47.613281 L 36 52 L 39 52 L 39 50.947266 C 38.6433 50.849266 38.305 50.687456 38 50.472656 L 38 51 L 37 51 L 37 49.328125 L 36 47.613281 z M 13 48 L 14 48 L 14 51 L 13 51 L 13 48 z M 21 48 L 22 48 L 22 51 L 21 51 L 21 48 z M 29 48 L 30 48 L 30 51 L 29 51 L 29 48 z M 45 48 L 46 48 L 46 51 L 45 51 L 45 48 z M 53 48 L 54 48 L 54 51 L 53 51 L 53 48 z M 42 50.207031 C 41.8245 50.373531 41.633416 50.525991 41.416016 50.650391 C 41.281516 50.727391 41.1408 50.780937 41 50.835938 L 41 52 L 42 52 L 42 50.207031 z " transform="translate(0,988.36214)" id="path6330"/>
  </g>

	
	<metadata>
		<rdf:RDF xmlns:rdf="http://www.w3.org/1999/02/22-rdf-syntax-ns#" xmlns:rdfs="http://www.w3.org/2000/01/rdf-schema#" xmlns:dc="http://purl.org/dc/elements/1.1/">
			<rdf:Description about="https://iconscout.com/legal#licenses" dc:title="Hacker, Attack, Cyber, Crime, Security, Bug, Threats, Hacking" dc:description="Hacker, Attack, Cyber, Crime, Security, Bug, Threats, Hacking" dc:publisher="Iconscout" dc:date="2016-12-14" dc:format="image/svg+xml" dc:language="en">
				<dc:creator>
					<rdf:Bag>
						<rdf:li>Jemis Mali</rdf:li>
					</rdf:Bag>
				</dc:creator>
			</rdf:Description>
		</rdf:RDF>
    </metadata></svg>
