<?xml version="1.0" encoding="UTF-8" standalone="no"?>
<svg xmlns:dc="http://purl.org/dc/elements/1.1/" xmlns:cc="http://creativecommons.org/ns#" xmlns:rdf="http://www.w3.org/1999/02/22-rdf-syntax-ns#" xmlns:svg="http://www.w3.org/2000/svg" xmlns="http://www.w3.org/2000/svg" xmlns:sodipodi="http://sodipodi.sourceforge.net/DTD/sodipodi-0.dtd" xmlns:inkscape="http://www.inkscape.org/namespaces/inkscape" width="64px" height="64px" viewBox="0 0 64.000001 64.000001" id="svg2" version="1.1" inkscape:version="0.91 r13725" sodipodi:docname="10.svg">
  <defs id="defs4"/>
  <sodipodi:namedview id="base" pagecolor="#ffffff" bordercolor="#666666" borderopacity="1.0" inkscape:pageopacity="0.0" inkscape:pageshadow="2" inkscape:zoom="5.6" inkscape:cx="41.178017" inkscape:cy="28.115685" inkscape:document-units="px" inkscape:current-layer="layer1" showgrid="false" units="px" inkscape:window-width="1366" inkscape:window-height="715" inkscape:window-x="-8" inkscape:window-y="-8" inkscape:window-maximized="1"/>
  
  <g inkscape:label="Layer 1" inkscape:groupmode="layer" id="layer1" transform="translate(0,-988.36216)">
    <g transform="translate(-1614.3313,-107.70535)" id="g15116">
      <path d="m 848.333,-69.754892 a 28.025887,28.025887 0 0 1 28.02589,-28.025885 28.025887,28.025887 0 0 1 28.02588,28.025886 l -28.02588,10e-7 z" sodipodi:end="6.2831853" sodipodi:start="3.1415927" sodipodi:ry="28.025887" sodipodi:rx="28.025887" sodipodi:cy="-69.75489" sodipodi:cx="876.35889" sodipodi:type="arc" id="path11285" style="fill:#fbfbfb;fill-opacity:1;stroke:none" transform="translate(770.22601,1213.1438)"/>
      <path style="fill:#f3f3f5;fill-opacity:1;stroke:none" id="path11287" sodipodi:type="arc" sodipodi:cx="876.35889" sodipodi:cy="-69.75489" sodipodi:rx="21.025887" sodipodi:ry="21.025887" sodipodi:start="3.1415927" sodipodi:end="6.2831853" d="m 855.333,-69.754891 a 21.025887,21.025887 0 0 1 21.02589,-21.025886 21.025887,21.025887 0 0 1 21.02588,21.025886 l -21.02588,10e-7 z" transform="translate(770.22601,1213.1438)"/>
      <path d="m 859.92919,-69.754891 a 16.429693,16.429693 0 0 1 16.4297,-16.429693 16.429693,16.429693 0 0 1 16.42969,16.429693 l -16.42969,10e-7 z" sodipodi:end="6.2831853" sodipodi:start="3.1415927" sodipodi:ry="16.429693" sodipodi:rx="16.429693" sodipodi:cy="-69.75489" sodipodi:cx="876.35889" sodipodi:type="arc" id="path11289" style="fill:#e8e8ec;fill-opacity:1;stroke:none" transform="translate(770.22601,1213.1438)"/>
      <path style="fill:#dfdfe5;fill-opacity:1;stroke:none" id="path11291" sodipodi:type="arc" sodipodi:cx="876.35889" sodipodi:cy="-69.75489" sodipodi:rx="11.30317" sodipodi:ry="11.30317" sodipodi:start="3.1415927" sodipodi:end="6.2831853" d="m 865.05572,-69.754891 a 11.30317,11.30317 0 0 1 11.30317,-11.30317 11.30317,11.30317 0 0 1 11.30317,11.30317 l -11.30317,10e-7 z" transform="translate(770.22601,1213.1438)"/>
      <path style="fill:none;stroke:#12141a;stroke-width:1px;stroke-linecap:round;stroke-linejoin:round;stroke-opacity:1" d="m 1622.8108,1142.8515 43.5039,0" id="path11293" inkscape:connector-curvature="0" sodipodi:nodetypes="cc"/>
      <path sodipodi:nodetypes="cc" inkscape:connector-curvature="0" id="path11295" d="m 1669.0251,1142.8515 2.0641,0" style="fill:none;stroke:#12141a;stroke-width:1px;stroke-linecap:round;stroke-linejoin:round;stroke-opacity:1"/>
      <path style="fill:none;stroke:#12141a;stroke-width:1px;stroke-linecap:round;stroke-linejoin:round;stroke-opacity:1" d="m 1618.559,1142.8515 5.7045,0" id="path11297" inkscape:connector-curvature="0" sodipodi:nodetypes="cc"/>
      <path sodipodi:nodetypes="cc" inkscape:connector-curvature="0" id="path11299" d="m 1635.843,1144.9189 19.7347,0" style="fill:#000000;fill-opacity:0;fill-rule:evenodd;stroke:#e6e6e6;stroke-width:1px;stroke-linecap:round;stroke-linejoin:round;stroke-opacity:1"/>
      <path style="fill:#000000;fill-opacity:0;fill-rule:evenodd;stroke:#e6e6e6;stroke-width:1px;stroke-linecap:round;stroke-linejoin:round;stroke-opacity:1" d="m 1638.4047,1146.9413 5.2631,0" id="path11301" inkscape:connector-curvature="0" sodipodi:nodetypes="cc"/>
      <path sodipodi:nodetypes="cc" inkscape:connector-curvature="0" id="path11303" d="m 1646.135,1146.9413 7.0607,0" style="fill:#000000;fill-opacity:0;fill-rule:evenodd;stroke:#e6e6e6;stroke-width:1px;stroke-linecap:round;stroke-linejoin:round;stroke-opacity:1"/>
      <path style="fill:#000000;fill-opacity:0;fill-rule:evenodd;stroke:#e6e6e6;stroke-width:1px;stroke-linecap:round;stroke-linejoin:round;stroke-opacity:1" d="m 1641.0866,1149.0185 5.1161,0" id="path11305" inkscape:connector-curvature="0" sodipodi:nodetypes="cc"/>
      <path sodipodi:nodetypes="cccccccccc" inkscape:connector-curvature="0" id="path11307" d="m 1660.5678,1109.8124 c -0.1727,0 -0.3104,0.1448 -0.3077,0.3174 0,0.2167 -0.093,0.315 -0.3076,0.315 -0.4228,-0.01 -0.4228,0.6311 0,0.6251 0.207,0 0.3076,0.057 0.3076,0.3015 -0.01,0.4227 0.6311,0.4227 0.6251,0 0,-0.2217 0.1038,-0.3015 0.3089,-0.3015 0.4227,0.01 0.4227,-0.6312 0,-0.6251 -0.2787,0 -0.3089,-0.1595 -0.3089,-0.315 0,-0.1764 -0.141,-0.3202 -0.3174,-0.3174 z" style="color:#000000;font-style:normal;font-variant:normal;font-weight:normal;font-stretch:normal;font-size:medium;line-height:normal;font-family:sans-serif;text-indent:0;text-align:start;text-decoration:none;text-decoration-line:none;letter-spacing:normal;word-spacing:normal;text-transform:none;direction:ltr;block-progression:tb;writing-mode:lr-tb;baseline-shift:baseline;text-anchor:start;display:inline;overflow:visible;visibility:visible;fill:#ffcc00;fill-opacity:1;fill-rule:evenodd;stroke:none;enable-background:accumulate"/>
      <path sodipodi:nodetypes="cccccccccc" inkscape:connector-curvature="0" id="path11309" d="m 1626.8387,1131.5886 c -0.237,0 -0.426,0.1987 -0.4223,0.4356 0,0.2975 -0.1271,0.4323 -0.4222,0.4323 -0.5802,-0.01 -0.5802,0.8663 0,0.858 0.2842,0 0.4222,0.079 0.4222,0.4138 -0.01,0.5801 0.8661,0.5801 0.8579,0 0,-0.3043 0.1424,-0.4138 0.424,-0.4138 0.5801,0.01 0.5801,-0.8662 0,-0.858 -0.3825,0 -0.424,-0.2188 -0.424,-0.4323 0,-0.2421 -0.1935,-0.4394 -0.4356,-0.4356 z" style="color:#000000;font-style:normal;font-variant:normal;font-weight:normal;font-stretch:normal;font-size:medium;line-height:normal;font-family:sans-serif;text-indent:0;text-align:start;text-decoration:none;text-decoration-line:none;letter-spacing:normal;word-spacing:normal;text-transform:none;direction:ltr;block-progression:tb;writing-mode:lr-tb;baseline-shift:baseline;text-anchor:start;display:inline;overflow:visible;visibility:visible;fill:#ffcc00;fill-opacity:1;fill-rule:evenodd;stroke:none;enable-background:accumulate"/>
      <path sodipodi:nodetypes="cccccccccc" inkscape:connector-curvature="0" id="path11311" d="m 1631.1238,1121.0378 c -0.1301,0 -0.2339,0.1091 -0.2318,0.2392 0,0.1633 -0.07,0.2373 -0.2319,0.2373 -0.3185,-0.01 -0.3185,0.4756 0,0.471 0.1561,0 0.2319,0.043 0.2319,0.2273 -0.01,0.3184 0.4755,0.3184 0.471,0 0,-0.1671 0.078,-0.2273 0.2327,-0.2273 0.3185,0 0.3185,-0.4755 0,-0.471 -0.21,0 -0.2327,-0.1201 -0.2327,-0.2373 0,-0.133 -0.1063,-0.2413 -0.2392,-0.2392 z" style="color:#000000;font-style:normal;font-variant:normal;font-weight:normal;font-stretch:normal;font-size:medium;line-height:normal;font-family:sans-serif;text-indent:0;text-align:start;text-decoration:none;text-decoration-line:none;letter-spacing:normal;word-spacing:normal;text-transform:none;direction:ltr;block-progression:tb;writing-mode:lr-tb;baseline-shift:baseline;text-anchor:start;display:inline;overflow:visible;visibility:visible;fill:#12141a;fill-opacity:1;fill-rule:evenodd;stroke:none;enable-background:accumulate"/>
      <path sodipodi:nodetypes="cccccccccc" inkscape:connector-curvature="0" id="path11313" d="m 1632.9437,1106.6165 c -0.1727,0 -0.3104,0.1448 -0.3077,0.3174 0,0.2167 -0.093,0.315 -0.3076,0.315 -0.4228,-0.01 -0.4228,0.6312 0,0.6251 0.207,0 0.3076,0.057 0.3076,0.3016 -0.01,0.4226 0.6311,0.4226 0.6251,0 0,-0.2218 0.1038,-0.3016 0.3089,-0.3016 0.4227,0.01 0.4227,-0.6311 0,-0.6251 -0.2787,0 -0.3089,-0.1594 -0.3089,-0.315 0,-0.1764 -0.141,-0.3201 -0.3174,-0.3174 z" style="color:#000000;font-style:normal;font-variant:normal;font-weight:normal;font-stretch:normal;font-size:medium;line-height:normal;font-family:sans-serif;text-indent:0;text-align:start;text-decoration:none;text-decoration-line:none;letter-spacing:normal;word-spacing:normal;text-transform:none;direction:ltr;block-progression:tb;writing-mode:lr-tb;baseline-shift:baseline;text-anchor:start;display:inline;overflow:visible;visibility:visible;fill:#ff8e00;fill-opacity:1;fill-rule:evenodd;stroke:none;enable-background:accumulate"/>
      <path sodipodi:nodetypes="cccccccccc" inkscape:connector-curvature="0" id="path11315" d="m 1651.5307,1107.5981 c -0.1301,0 -0.2339,0.1091 -0.2319,0.2391 0,0.1633 -0.07,0.2374 -0.2318,0.2374 -0.3185,0 -0.3185,0.4755 0,0.471 0.156,0 0.2318,0.043 0.2318,0.2272 -0.01,0.3185 0.4755,0.3185 0.471,0 0,-0.1671 0.078,-0.2272 0.2328,-0.2272 0.3185,0.01 0.3185,-0.4756 0,-0.471 -0.21,0 -0.2328,-0.1202 -0.2328,-0.2374 0,-0.1329 -0.1062,-0.2412 -0.2391,-0.2391 z" style="color:#000000;font-style:normal;font-variant:normal;font-weight:normal;font-stretch:normal;font-size:medium;line-height:normal;font-family:sans-serif;text-indent:0;text-align:start;text-decoration:none;text-decoration-line:none;letter-spacing:normal;word-spacing:normal;text-transform:none;direction:ltr;block-progression:tb;writing-mode:lr-tb;baseline-shift:baseline;text-anchor:start;display:inline;overflow:visible;visibility:visible;fill:#12141a;fill-opacity:1;fill-rule:evenodd;stroke:none;enable-background:accumulate"/>
      <path sodipodi:nodetypes="cccccccccc" inkscape:connector-curvature="0" id="path11317" d="m 1662.2824,1115.8151 c -0.1726,0 -0.3104,0.1448 -0.3077,0.3174 0,0.2167 -0.093,0.315 -0.3076,0.315 -0.4227,-0.01 -0.4227,0.6311 0,0.6251 0.2071,0 0.3076,0.057 0.3076,0.3015 -0.01,0.4227 0.6311,0.4227 0.6251,0 0,-0.2217 0.1038,-0.3015 0.3089,-0.3015 0.4227,0.01 0.4227,-0.6312 0,-0.6251 -0.2787,0 -0.3089,-0.1595 -0.3089,-0.315 0,-0.1764 -0.1409,-0.3202 -0.3174,-0.3174 z" style="color:#000000;font-style:normal;font-variant:normal;font-weight:normal;font-stretch:normal;font-size:medium;line-height:normal;font-family:sans-serif;text-indent:0;text-align:start;text-decoration:none;text-decoration-line:none;letter-spacing:normal;word-spacing:normal;text-transform:none;direction:ltr;block-progression:tb;writing-mode:lr-tb;baseline-shift:baseline;text-anchor:start;display:inline;overflow:visible;visibility:visible;fill:#ff8e00;fill-opacity:1;fill-rule:evenodd;stroke:none;enable-background:accumulate"/>
      <path sodipodi:nodetypes="cccccccccc" inkscape:connector-curvature="0" id="path11319" d="m 1663.7171,1126.2524 c -0.13,0 -0.2338,0.1092 -0.2318,0.2392 0,0.1633 -0.07,0.2374 -0.2318,0.2374 -0.3185,-0.01 -0.3185,0.4755 0,0.471 0.156,0 0.2318,0.043 0.2318,0.2272 -0.01,0.3185 0.4755,0.3185 0.471,0 0,-0.1671 0.078,-0.2272 0.2327,-0.2272 0.3186,0 0.3186,-0.4756 0,-0.471 -0.2099,0 -0.2327,-0.1202 -0.2327,-0.2374 0,-0.1329 -0.1062,-0.2412 -0.2392,-0.2392 z" style="color:#000000;font-style:normal;font-variant:normal;font-weight:normal;font-stretch:normal;font-size:medium;line-height:normal;font-family:sans-serif;text-indent:0;text-align:start;text-decoration:none;text-decoration-line:none;letter-spacing:normal;word-spacing:normal;text-transform:none;direction:ltr;block-progression:tb;writing-mode:lr-tb;baseline-shift:baseline;text-anchor:start;display:inline;overflow:visible;visibility:visible;fill:#12141a;fill-opacity:1;fill-rule:evenodd;stroke:none;enable-background:accumulate"/>
      <path sodipodi:nodetypes="cccccccccc" inkscape:connector-curvature="0" id="path11321" d="m 1663.0071,1132.5992 c -0.237,0 -0.426,0.1988 -0.4223,0.4357 0,0.2974 -0.1271,0.4323 -0.4223,0.4323 -0.5801,-0.01 -0.5801,0.8662 0,0.8579 0.2842,0 0.4223,0.079 0.4223,0.4139 -0.01,0.5801 0.8661,0.5801 0.8579,0 0,-0.3044 0.1424,-0.4139 0.4239,-0.4139 0.5802,0.01 0.5802,-0.8662 0,-0.8579 -0.3825,0 -0.4239,-0.2188 -0.4239,-0.4323 0,-0.2422 -0.1935,-0.4395 -0.4356,-0.4357 z" style="color:#000000;font-style:normal;font-variant:normal;font-weight:normal;font-stretch:normal;font-size:medium;line-height:normal;font-family:sans-serif;text-indent:0;text-align:start;text-decoration:none;text-decoration-line:none;letter-spacing:normal;word-spacing:normal;text-transform:none;direction:ltr;block-progression:tb;writing-mode:lr-tb;baseline-shift:baseline;text-anchor:start;display:inline;overflow:visible;visibility:visible;fill:#ff8e00;fill-opacity:1;fill-rule:evenodd;stroke:none;enable-background:accumulate"/>
      <path sodipodi:nodetypes="cccccccccc" inkscape:connector-curvature="0" id="path11323" d="m 1630.3451,1113.2441 c -0.1727,0 -0.3104,0.1448 -0.3077,0.3174 0,0.2167 -0.093,0.315 -0.3077,0.315 -0.4227,-0.01 -0.4227,0.6311 0,0.6251 0.2071,0 0.3077,0.057 0.3077,0.3016 -0.01,0.4226 0.6311,0.4226 0.6251,0 0,-0.2218 0.1038,-0.3016 0.3089,-0.3016 0.4227,0.01 0.4227,-0.6311 0,-0.6251 -0.2787,0 -0.3089,-0.1594 -0.3089,-0.315 0,-0.1764 -0.141,-0.3202 -0.3174,-0.3174 z" style="color:#000000;font-style:normal;font-variant:normal;font-weight:normal;font-stretch:normal;font-size:medium;line-height:normal;font-family:sans-serif;text-indent:0;text-align:start;text-decoration:none;text-decoration-line:none;letter-spacing:normal;word-spacing:normal;text-transform:none;direction:ltr;block-progression:tb;writing-mode:lr-tb;baseline-shift:baseline;text-anchor:start;display:inline;overflow:visible;visibility:visible;fill:#ffcc00;fill-opacity:1;fill-rule:evenodd;stroke:none;enable-background:accumulate"/>
      <path sodipodi:nodetypes="cccccccccc" inkscape:connector-curvature="0" id="path11325" d="m 1639.521,1108.4175 c -0.1334,0 -0.2399,0.1119 -0.2378,0.2453 0,0.1675 -0.072,0.2434 -0.2378,0.2434 -0.3267,0 -0.3267,0.4878 0,0.4831 0.16,0 0.2378,0.044 0.2378,0.2331 0,0.3267 0.4877,0.3267 0.4831,0 0,-0.1714 0.08,-0.2331 0.2387,-0.2331 0.3267,0 0.3267,-0.4877 0,-0.4831 -0.2154,0 -0.2387,-0.1232 -0.2387,-0.2434 10e-4,-0.1364 -0.109,-0.2475 -0.2453,-0.2453 z" style="color:#000000;font-style:normal;font-variant:normal;font-weight:normal;font-stretch:normal;font-size:medium;line-height:normal;font-family:sans-serif;text-indent:0;text-align:start;text-decoration:none;text-decoration-line:none;letter-spacing:normal;word-spacing:normal;text-transform:none;direction:ltr;block-progression:tb;writing-mode:lr-tb;baseline-shift:baseline;text-anchor:start;display:inline;overflow:visible;visibility:visible;fill:#12141a;fill-opacity:1;fill-rule:evenodd;stroke:none;enable-background:accumulate"/>
      <path sodipodi:type="arc" style="fill:#ffcc00;fill-opacity:1;stroke:none" id="path4385" sodipodi:cx="12.71875" sodipodi:cy="32.34375" sodipodi:rx="3.90625" sodipodi:ry="3.90625" d="m 12.71875,36.25 a 3.90625,3.90625 0 0 1 -3.3829117,-1.953125 3.90625,3.90625 0 0 1 0,-3.90625 A 3.90625,3.90625 0 0 1 12.71875,28.4375" transform="matrix(0.49559452,-0.28765242,0.28714626,0.49627474,1617.3252,1121.6715)" sodipodi:start="1.5707963" sodipodi:end="4.712389" sodipodi:open="true"/>
      <circle r="5.6875" cy="25.0625" cx="38.0625" style="fill:#000000;fill-opacity:0;stroke:#adb5b9;stroke-width:0.42511952;stroke-linecap:butt;stroke-linejoin:miter;stroke-miterlimit:4;stroke-dasharray:0.42511951, 0.42511951;stroke-dashoffset:0;stroke-opacity:1" id="path4779" transform="matrix(2.3485954,0.13216893,-0.13217251,2.3485317,1561.5511,1061.6764)"/>
      <circle r="5.6875" cy="25.0625" cx="38.0625" style="fill:#000000;fill-opacity:0;stroke:#adb5b9;stroke-width:0.68146145;stroke-linecap:butt;stroke-linejoin:miter;stroke-miterlimit:4;stroke-dasharray:0.68146146, 0.68146146;stroke-dashoffset:0;stroke-opacity:1" id="path4775" transform="matrix(1.465136,0.08245161,-0.08245385,1.4650962,1593.9318,1085.7099)"/>
      <circle r="5.2455583" cy="25.0625" cx="38.0625" style="fill:#000000;fill-opacity:0;stroke:#adb5b9;stroke-width:1.40506434;stroke-linecap:butt;stroke-linejoin:miter;stroke-miterlimit:4;stroke-dasharray:1.40506431, 1.40506431;stroke-dashoffset:0;stroke-opacity:1" id="path4771" transform="matrix(0.71059647,0.03998933,-0.03999041,0.71057718,1621.5872,1106.2362)"/>
      <rect style="fill:#00ccff;fill-opacity:1;stroke:#12141a;stroke-width:1.00000048;stroke-linecap:round;stroke-linejoin:round;stroke-miterlimit:4;stroke-dasharray:none;stroke-opacity:1" id="rect4379" width="4.5258265" height="6.0202794" x="845.44366" y="1797.5203" rx="0.97860855" ry="0.97859538" transform="matrix(0.86487392,-0.50198914,0.50081328,0.86555535,0,0)"/>
      <path style="color:#000000;font-style:normal;font-variant:normal;font-weight:normal;font-stretch:normal;font-size:medium;line-height:normal;font-family:Sans;-inkscape-font-specification:Sans;text-indent:0;text-align:start;text-decoration:none;text-decoration-line:none;letter-spacing:normal;word-spacing:normal;text-transform:none;direction:ltr;block-progression:tb;writing-mode:lr-tb;baseline-shift:baseline;text-anchor:start;display:inline;overflow:visible;visibility:visible;fill:#ffffff;fill-opacity:1;fill-rule:nonzero;stroke:none;stroke-width:1.00000048;marker:none;enable-background:accumulate" d="m 1634.9375,125.6875 c -0.06,0.009 -0.1283,0.0281 -0.1875,0.0625 l -2.2188,1.28125 c -0.2365,0.1374 -0.3246,0.41925 -0.1874,0.65625 l 0.3923,0.66298 c -0.1371,-0.237 -0.01,-0.52276 0.2266,-0.66016 l 2.2188,-1.28125 c 0.2238,-0.12986 0.4511,-0.0508 0.5937,0.15625 l -0.369,-0.65907 c -0.1029,-0.17812 -0.2875,-0.24578 -0.4687,-0.21875 z" transform="translate(0,1004.3622)" id="rect15638" inkscape:connector-curvature="0" sodipodi:nodetypes="sccccccccs"/>
      <path style="fill:#00ccff;fill-opacity:1;stroke:none" d="m 1635.8512,1128.8802 c 3.8403,-2.229 6.6123,-5.8655 7.46,-9.0534 l 7.0892,12.2516 c -2.7333,-0.725 -7.7392,-0.19 -11.5339,2.0125 z" id="rect4391" inkscape:connector-curvature="0" sodipodi:nodetypes="ccccc"/>
      <path sodipodi:nodetypes="sccccccccs" inkscape:connector-curvature="0" id="path15647" d="m 1634.8468,1135.8063 c 0.06,-0.01 0.1283,-0.028 0.1875,-0.062 l 2.2188,-1.2812 c 0.2365,-0.1374 0.3246,-0.4193 0.1874,-0.6563 l -0.3923,-0.663 c 0.1371,0.237 0.01,0.5228 -0.2266,0.6602 l -2.2188,1.2812 c -0.2238,0.1299 -0.4511,0.051 -0.5937,-0.1562 l 0.369,0.6591 c 0.1029,0.1781 0.2875,0.2457 0.4687,0.2187 z" style="color:#000000;font-style:normal;font-variant:normal;font-weight:normal;font-stretch:normal;font-size:medium;line-height:normal;font-family:Sans;-inkscape-font-specification:Sans;text-indent:0;text-align:start;text-decoration:none;text-decoration-line:none;letter-spacing:normal;word-spacing:normal;text-transform:none;direction:ltr;block-progression:tb;writing-mode:lr-tb;baseline-shift:baseline;text-anchor:start;display:inline;overflow:visible;visibility:visible;fill:#0055d4;fill-opacity:1;fill-rule:nonzero;stroke:none;stroke-width:1.00000048;marker:none;enable-background:accumulate"/>
      <path sodipodi:nodetypes="cccccccccsc" inkscape:connector-curvature="0" id="path15649" d="m 1635.6336,1131.265 c -0.06,0.01 -0.1283,0.028 -0.1875,0.062 l -2.2188,1.2813 c -0.2365,0.1374 -0.3246,0.4192 -0.1874,0.6562 l 0.2597,0.4199 c -0.1371,-0.237 -0.01,-0.5227 0.2266,-0.6601 l 2.2188,-1.2813 c 0.2238,-0.1299 0.4511,-0.051 0.5937,0.1563 l -0.2364,-0.416 c -0.1029,-0.1781 -0.2875,-0.2458 -0.4687,-0.2188 z" style="color:#000000;font-style:normal;font-variant:normal;font-weight:normal;font-stretch:normal;font-size:medium;line-height:normal;font-family:Sans;-inkscape-font-specification:Sans;text-indent:0;text-align:start;text-decoration:none;text-decoration-line:none;letter-spacing:normal;word-spacing:normal;text-transform:none;direction:ltr;block-progression:tb;writing-mode:lr-tb;baseline-shift:baseline;text-anchor:start;display:inline;overflow:visible;visibility:visible;fill:#ffffff;fill-opacity:1;fill-rule:nonzero;stroke:none;stroke-width:1.00000048;marker:none;enable-background:accumulate"/>
      <rect ry="1.1382335" rx="1.1382489" y="1796.6602" x="848.28387" height="7.7941113" width="2.2764978" id="rect4387" style="fill:#ffcc00;fill-opacity:1;stroke:none" transform="matrix(0.86487392,-0.50198914,0.50081328,0.86555535,0,0)"/>
      <path sodipodi:nodetypes="ccccc" inkscape:connector-curvature="0" id="path15064" d="m 1644.3859,1121.0301 c -0.6222,3.6457 -3.2639,7.0361 -7.1288,9.8721 l -0.7347,-0.7818 c 3.9528,-1.9043 6.9294,-6.4213 7.8635,-9.0903 0.838,0.7397 0,0 0,0 z" style="fill:#ffffff;fill-opacity:1;stroke:none"/>
      <path style="fill:#0055d4;fill-opacity:1;stroke:none" d="m 1649.9688,1131.456 c -3.3665,-1.5314 -8.9402,-0.4512 -11.7667,1.1837 l 0.6729,1.4413 c 3.7947,-2.2025 8.7979,-2.7251 11.5312,-2 -0.1419,-1.1087 -0.4374,-0.625 -0.4374,-0.625 z" id="path15054" inkscape:connector-curvature="0" sodipodi:nodetypes="ccccc"/>
      <path style="fill:#adb5b9;fill-opacity:1;stroke:#12141a;stroke-width:1;stroke-linecap:round;stroke-linejoin:round;stroke-miterlimit:4;stroke-opacity:1" d="m 1635.2306,1136.2244 1.6427,-0.9534 4.4624,7.5704 -2.2521,0 z" id="rect4398" inkscape:connector-curvature="0" sodipodi:nodetypes="ccccc"/>
      <path transform="matrix(2.3485954,0.13216893,-0.13217251,2.3485317,1561.5511,1061.6764)" d="m 39.534533,19.568797 a 5.6875,5.6875 0 0 1 4.02167,6.965736" sodipodi:ry="5.6875" sodipodi:rx="5.6875" sodipodi:cy="25.0625" sodipodi:cx="38.0625" id="path4785" style="fill:none;stroke:#12141a;stroke-width:0.42511949;stroke-linecap:round;stroke-linejoin:round;stroke-miterlimit:4;stroke-dasharray:none;stroke-opacity:1" sodipodi:type="arc" sodipodi:start="4.9741884" sodipodi:end="0.26179939" sodipodi:open="true"/>
      <path transform="matrix(1.465136,0.08245161,-0.08245385,1.4650962,1593.9318,1085.7099)" d="m 39.534533,19.568797 a 5.6875,5.6875 0 0 1 4.02167,6.965736" sodipodi:ry="5.6875" sodipodi:rx="5.6875" sodipodi:cy="25.0625" sodipodi:cx="38.0625" id="path4789" style="fill:none;stroke:#12141a;stroke-width:0.68146145;stroke-linecap:round;stroke-linejoin:round;stroke-miterlimit:4;stroke-dasharray:none;stroke-opacity:1" sodipodi:type="arc" sodipodi:start="4.9741884" sodipodi:end="0.26179939" sodipodi:open="true"/>
      <path transform="matrix(0.71059647,0.03998933,-0.03999041,0.71057718,1621.5872,1106.2362)" d="m 39.420151,19.99568 a 5.2455583,5.2455583 0 0 1 3.709169,6.42447" sodipodi:ry="5.2455583" sodipodi:rx="5.2455583" sodipodi:cy="25.0625" sodipodi:cx="38.0625" id="path4793" style="fill:none;stroke:#12141a;stroke-width:1.40506434;stroke-linecap:round;stroke-linejoin:round;stroke-miterlimit:4;stroke-dasharray:none;stroke-opacity:1" sodipodi:type="arc" sodipodi:start="4.9741884" sodipodi:end="0.26179939" sodipodi:open="true"/>
      <path style="fill:#ffffff;fill-opacity:1;stroke:none" d="m 1632.7876,1136.206 c -1.0692,0.6206 -1.1881,0.053 -1.8076,-1.0181 -0.6195,-1.0706 -0.2549,-2.4416 0.8143,-3.0622 l -0.094,0.5 c -0.4105,1.3245 0.087,2.6045 1.0871,3.5803 z" id="path15045" inkscape:connector-curvature="0" sodipodi:nodetypes="csccc"/>
      <path sodipodi:open="true" sodipodi:end="4.712389" sodipodi:start="1.5707963" transform="matrix(0.49559452,-0.28765242,0.28714626,0.49627474,1617.3252,1121.6715)" d="m 12.71875,36.25 a 3.90625,3.90625 0 0 1 -3.3829117,-1.953125 3.90625,3.90625 0 0 1 0,-3.90625 A 3.90625,3.90625 0 0 1 12.71875,28.4375" sodipodi:ry="3.90625" sodipodi:rx="3.90625" sodipodi:cy="32.34375" sodipodi:cx="12.71875" id="path15048" style="fill:none;stroke:#12141a;stroke-width:1.74461532;stroke-linecap:round;stroke-linejoin:round;stroke-miterlimit:4;stroke-dasharray:none;stroke-opacity:1" sodipodi:type="arc"/>
      <path id="path15636" d="m 1634.9344,1128.5629 c -0.1546,0.02 -0.3249,0.073 -0.4687,0.1562 -0.5751,0.3339 -0.7705,1.0495 -0.4375,1.625 l 1,1.7188 c -0.333,-0.5756 -0.1376,-1.3225 0.4375,-1.6563 0.549,-0.3187 1.2424,-0.141 1.5937,0.375 l -0.9374,-1.6249 c -0.2498,-0.4318 -0.7237,-0.6529 -1.1876,-0.5938 z" style="fill:#ffffff;fill-opacity:1;stroke:none" inkscape:connector-curvature="0"/>
      <path sodipodi:nodetypes="cccccccc" inkscape:connector-curvature="0" id="path15062" d="m 1641.1983,1124.0679 c 1.0186,-1.3974 1.746,-2.8613 2.1129,-4.2411 l 7.0892,12.2516 c -2.7333,-0.725 -7.7392,-0.19 -11.5339,2.0125 l -3.0153,-5.2107 c 0.926,-0.5375 1.7899,-1.1568 2.5797,-1.8319 m 1.1099,-1.0334 c 0.103,-0.1044 0.2043,-0.2097 0.304,-0.3158" style="fill:none;stroke:#12141a;stroke-width:1;stroke-linecap:round;stroke-linejoin:round;stroke-miterlimit:4;stroke-opacity:1"/>
      <path sodipodi:nodetypes="cccssssssc" inkscape:connector-curvature="0" id="rect4393" d="m 1647.1101,1128.6709 -0.3195,-0.5023 m -0.67,-1.2077 -3.6112,-6.2413 c -0.333,-0.5755 -0.1381,-1.3076 0.4371,-1.6415 0.5751,-0.3338 1.3062,-0.1391 1.6392,0.4364 l 6.7366,11.6428 c 0.333,0.5756 0.1381,1.3077 -0.437,1.6415 -0.5751,0.3338 -1.3063,0.1392 -1.6393,-0.4364 l -1.2573,-2.173" style="fill:#ffcc00;fill-opacity:1;stroke:none"/>
      <path inkscape:connector-curvature="0" id="path15562" d="m 1643.4062,1118.9247 c -0.1546,0.02 -0.3249,0.073 -0.4687,0.1563 -0.5751,0.3338 -0.7705,1.0494 -0.4375,1.625 l 1,1.7187 c -0.333,-0.5755 -0.1376,-1.3225 0.4375,-1.6562 0.549,-0.3187 1.2424,-0.1411 1.5937,0.375 l -0.9374,-1.625 c -0.2498,-0.4317 -0.7237,-0.6529 -1.1876,-0.5938 z" style="fill:#ffffff;fill-opacity:1;stroke:none"/>
      <path id="path15571" d="m 1648.9387,1130.3596 c 0.1546,-0.02 0.3249,-0.073 0.4687,-0.1562 0.5751,-0.3338 0.7705,-1.0495 0.4375,-1.625 l -1,-1.7188 c 0.333,0.5756 0.1376,1.3225 -0.4375,1.6563 -0.549,0.3187 -1.2424,0.1411 -1.5937,-0.375 l 0.9374,1.625 c 0.2498,0.4317 0.7237,0.6529 1.1876,0.5937 z" style="fill:#ff8e00;fill-opacity:1;stroke:none" inkscape:connector-curvature="0"/>
      <path inkscape:connector-curvature="0" style="fill:#ff8e00;fill-opacity:1;stroke:none" d="m 1650.4162,1132.9525 c 0.1546,-0.02 0.3249,-0.073 0.4687,-0.1562 0.5751,-0.3339 0.7705,-1.0495 0.4375,-1.625 l -1,-1.7188 c 0.333,0.5756 0.1376,1.3225 -0.4375,1.6563 -0.549,0.3187 -1.2424,0.141 -1.5937,-0.375 l 0.9374,1.6249 c 0.2498,0.4318 0.7237,0.6529 1.1876,0.5938 z" id="path15569"/>
      <path style="fill:none;stroke:#12141a;stroke-width:1;stroke-linecap:round;stroke-linejoin:round;stroke-miterlimit:4;stroke-opacity:1" d="m 1647.1101,1128.6709 -0.3195,-0.5023 m -0.67,-1.2077 -3.6112,-6.2413 c -0.333,-0.5755 -0.1381,-1.3076 0.4371,-1.6415 0.5751,-0.3338 1.3062,-0.1391 1.6392,0.4364 l 6.7366,11.6428 c 0.333,0.5756 0.1381,1.3077 -0.437,1.6415 -0.5751,0.3338 -1.3063,0.1392 -1.6393,-0.4364 l -1.2573,-2.173" id="path15567" inkscape:connector-curvature="0" sodipodi:nodetypes="cccssssssc"/>
      <path inkscape:connector-curvature="0" style="fill:#ff8e00;fill-opacity:1;stroke:none" d="m 1637.9762,1135.8362 c 0.1546,-0.02 0.3249,-0.073 0.4687,-0.1562 0.5751,-0.3339 0.7705,-1.0495 0.4375,-1.625 l -1,-1.7188 c 0.333,0.5756 0.1376,1.3225 -0.4375,1.6563 -0.549,0.3187 -1.2424,0.141 -1.5937,-0.375 l 0.9374,1.6249 c 0.2498,0.4318 0.7237,0.6529 1.1876,0.5938 z" id="path15571-1"/>
      <rect transform="matrix(0.86487392,-0.50198914,0.50081328,0.86555535,0,0)" style="fill:none;stroke:#12141a;stroke-width:1.00000048;stroke-linecap:round;stroke-linejoin:round;stroke-miterlimit:4;stroke-dasharray:none;stroke-opacity:1" id="rect15591" width="2.2764978" height="7.7941113" x="848.28387" y="1796.6602" rx="1.1382489" ry="1.1382335"/>
    </g>
  </g>

	
	
	<metadata>
		<rdf:RDF xmlns:rdf="http://www.w3.org/1999/02/22-rdf-syntax-ns#" xmlns:rdfs="http://www.w3.org/2000/01/rdf-schema#" xmlns:dc="http://purl.org/dc/elements/1.1/">
			<rdf:Description about="https://iconscout.com/legal#licenses" dc:title="Announcement, Communication, Loud, Sound, Speaker, Stereo, Megaphone" dc:description="Announcement, Communication, Loud, Sound, Speaker, Stereo, Megaphone" dc:publisher="Iconscout" dc:date="2016-12-14" dc:format="image/svg+xml" dc:language="en">
				<dc:creator>
					<rdf:Bag>
						<rdf:li>Dalpat Prajapati</rdf:li>
					</rdf:Bag>
				</dc:creator>
			</rdf:Description>
		</rdf:RDF>
    </metadata></svg>
